<?xml version="1.0" encoding="UTF-8"?><svg id="Products" xmlns="http://www.w3.org/2000/svg" width="559.747" height="211.613" viewBox="0 0 559.747 211.613"><g id="Flare_logo"><path d="M175.063,0c-9.036.72-19.78,12.167-19.78,12.167l4.127,17.283-7.757-14.07-15.686,15.147,6.08,20.603-9.987-17.013-11.86,13.92,10.32,22.76-12.927-20.043-8.82,12.34,9.884,16.657-11.94-14.393-6.614,10.91,6.617,14.503-8.517-11.703-4.317,6.823,10.683,17.393-11.703-15.24-8.707,17.517,5.427,13.187-8.34-9.697-5.56,9.87c-3.863,7.033,1.93,13.307,1.93,13.307,0,0,7.34,6.063.72,14.15-11.44,13.976-28.407,28.003-43.91,41.816-2.997,2.67-8.863,7.527-8.78,7.987.083.46,9.2-4.767,13.303-7.867C144.26,108.73,175.063,0,175.063,0Z" fill="#bed420" stroke-width="0"/><path d="M177.673,39.467c-.363,1.27-.796,2.417-1.306,3.383l-11.184,4.177,12.197-2.723-4.56,11.277-17.333,5.117,16.536-1.377-7.4,16.497-19.616,5.79,17.003-.783-11.81,18.383-19.08,5.63,16.15-1.7-5.953,8.036-18.28,4.374,15.1-.807s-11.907,16.077-20.107,22.44c0,0-14.617.953-20.167-.037l16.614,2.837s-5.424,8.43-18.344,6.143c-4.993-.883-7.407,2.624-7.407,2.624,0,0-15.44,17.8-47.94,42.21,17.167,12.966,38.54,20.656,61.713,20.656,56.607,0,102.497-45.89,102.497-102.496,0-26.904-10.37-51.38-27.324-69.664v.013Z" fill="#bed420" stroke-width="0"/><path d="M35.863,179.403c-18.623-17.67-30.26-42.633-30.26-70.273C5.603,55.7,49.073,12.233,102.503,12.233c13.027,0,25.454,2.597,36.81,7.28l4.384-4.233c-12.614-5.56-26.547-8.65-41.19-8.65C45.983,6.627,0,52.61,0,109.13c0,29.03,12.133,55.273,31.593,73.94l4.27-3.667Z" fill="#bed420" stroke-width="0"/><path d="M257.943,103.4h50.504v9.21h-39.784v12.757h34.197v9.21h-34.197v23.703h-10.72v-54.88Z" fill="#bed420" stroke-width="0"/><path d="M316.673,103.4h10.72v45.37h39.784v9.51h-50.504v-54.88Z" fill="#bed420" stroke-width="0"/><path d="M396.54,103.4h12.23l26.647,54.88h-11.324l-5.736-12.607h-31.63l-5.814,12.607h-11.4l27.027-54.88ZM414.13,136.463l-11.473-24.46-11.474,24.46h22.95-.003Z" fill="#bed420" stroke-width="0"/><path d="M442.513,103.4h32.99c12.984,0,22.347,2.943,22.347,16.38,0,10.117-7.247,15.703-15.323,16.153l16.833,22.347h-13.21l-15.93-21.59h-16.987v21.59h-10.72v-54.88ZM473.917,127.783c8.756,0,13.21-1.283,13.21-7.776s-4.454-7.7-13.21-7.7h-20.684v15.476h20.684Z" fill="#bed420" stroke-width="0"/><path d="M509.62,103.4h49.22v9.21h-38.5v12.757h33.14v9.21h-33.14v14.493h39.407v9.21h-50.127v-54.88Z" fill="#bed420" stroke-width="0"/><path d="M257.943,62.757h3.327v4.44c1.153-1.637,2.333-2.837,3.547-3.59,1.666-.983,3.42-1.47,5.266-1.47,1.24,0,2.427.25,3.544.737,1.12.49,2.036,1.137,2.74,1.95.706.81,1.323,1.967,1.84,3.48,1.1-2.013,2.47-3.547,4.11-4.593,1.64-1.04,3.406-1.57,5.3-1.57,1.766,0,3.326.453,4.676,1.347,1.357.897,2.357,2.15,3.024,3.753.65,1.603.98,4.017.98,7.213v14.017h-3.33v-14.017c0-2.75-.2-4.637-.587-5.67-.397-1.03-1.067-1.867-2.007-2.487-.953-.633-2.083-.947-3.396-.947-1.6,0-3.057.473-4.38,1.42-1.327.94-2.297,2.203-2.904,3.773-.61,1.57-.91,4.2-.91,7.883v10.05h-3.336v-13.14c0-3.1-.19-5.2-.577-6.31-.387-1.11-1.06-1.997-2.013-2.663-.96-.673-2.1-1.007-3.417-1.007-1.53,0-2.95.46-4.283,1.38-1.327.923-2.31,2.163-2.944,3.717-.636,1.557-.956,3.943-.956,7.153v10.877h-3.327v-25.713l.013-.013Z" fill="#7d858a" stroke-width="0"/><path d="M328.923,62.757v25.713h-3.333v-4.417c-1.377,1.687-2.93,2.95-4.653,3.78-1.717.833-3.594,1.25-5.634,1.25-3.623,0-6.723-1.31-9.29-3.943-2.57-2.633-3.853-5.83-3.853-9.597s1.297-6.85,3.887-9.473,5.706-3.94,9.353-3.94c2.107,0,4.01.447,5.71,1.327,1.703.883,3.197,2.223,4.48,4.013v-4.72h3.333v.007ZM315.677,65.347c-1.827,0-3.517.45-5.067,1.353-1.543.897-2.773,2.163-3.687,3.797-.91,1.633-1.373,3.357-1.373,5.173s.46,3.53,1.387,5.177c.916,1.65,2.153,2.933,3.71,3.85,1.556.917,3.226,1.377,5.01,1.377s3.5-.453,5.103-1.367c1.613-.91,2.85-2.137,3.72-3.69.867-1.557,1.303-3.3,1.303-5.247,0-2.967-.976-5.44-2.923-7.433-1.943-1.997-4.337-2.99-7.18-2.99h-.003Z" fill="#7d858a" stroke-width="0"/><path d="M361.937,52.89v35.58h-3.33v-4.417c-1.377,1.687-2.92,2.95-4.644,3.78-1.706.833-3.586,1.25-5.62,1.25-3.616,0-6.71-1.31-9.27-3.943-2.563-2.633-3.836-5.83-3.836-9.597s1.29-6.85,3.873-9.473c2.583-2.623,5.7-3.94,9.333-3.94,2.094,0,3.99.453,5.694,1.353,1.696.893,3.176,2.24,4.47,4.033v-14.633h3.33v.007ZM348.72,65.347c-1.823,0-3.503.45-5.047,1.353-1.543.897-2.77,2.163-3.676,3.797-.914,1.633-1.374,3.357-1.374,5.173s.46,3.53,1.38,5.177c.92,1.65,2.154,2.933,3.704,3.85s3.213,1.377,4.986,1.377,3.494-.453,5.094-1.367c1.606-.91,2.84-2.137,3.706-3.69.864-1.557,1.294-3.3,1.294-5.247,0-2.967-.97-5.44-2.91-7.433-1.937-1.997-4.327-2.99-7.16-2.99h.003Z" fill="#7d858a" stroke-width="0"/><path d="M394.36,68.037l-2.613,1.627c-2.28-2.997-5.36-4.5-9.29-4.5-3.137,0-5.734,1.01-7.81,3.027-2.067,2.02-3.107,4.47-3.107,7.357,0,1.877.483,3.643,1.43,5.297.953,1.653,2.257,2.94,3.923,3.853,1.66.917,3.52,1.377,5.59,1.377,3.78,0,6.864-1.503,9.26-4.5l2.614,1.723c-1.227,1.837-2.88,3.263-4.957,4.283-2.077,1.003-4.443,1.513-7.09,1.513-4.07,0-7.45-1.283-10.133-3.863-2.684-2.573-4.027-5.703-4.027-9.397,0-2.48.633-4.787,1.88-6.917,1.26-2.127,2.98-3.787,5.173-4.983,2.197-1.19,4.654-1.79,7.364-1.79,1.703,0,3.353.26,4.936.773,1.584.507,2.934,1.173,4.037,1.99,1.113.817,2.047,1.863,2.817,3.133l.003-.003Z" fill="#7d858a" stroke-width="0"/><path d="M426.3,62.757v25.713h-3.32v-4.417c-1.383,1.687-2.933,2.95-4.653,3.78-1.724.833-3.604,1.25-5.637,1.25-3.63,0-6.727-1.31-9.297-3.943s-3.853-5.83-3.853-9.597,1.3-6.85,3.893-9.473c2.59-2.623,5.707-3.94,9.35-3.94,2.104,0,4.004.447,5.71,1.327,1.697.883,3.194,2.223,4.49,4.013v-4.72h3.32l-.003.007ZM413.06,65.347c-1.823,0-3.513.45-5.06,1.353-1.55.897-2.777,2.163-3.693,3.797-.914,1.633-1.374,3.357-1.374,5.173s.467,3.53,1.39,5.177c.91,1.65,2.154,2.933,3.717,3.85,1.547.917,3.22,1.377,5,1.377s3.5-.453,5.103-1.367c1.614-.91,2.86-2.137,3.72-3.69.867-1.557,1.297-3.3,1.297-5.247,0-2.967-.97-5.44-2.913-7.433-1.954-1.997-4.34-2.99-7.187-2.99Z" fill="#7d858a" stroke-width="0"/><path d="M433.727,62.757h3.33v4.72c1.303-1.79,2.803-3.13,4.5-4.013,1.7-.88,3.59-1.327,5.68-1.327,3.646,0,6.773,1.317,9.363,3.94,2.593,2.62,3.893,5.773,3.893,9.473s-1.293,6.963-3.86,9.597c-2.57,2.633-5.663,3.943-9.303,3.943-2.037,0-3.92-.423-5.63-1.277-1.72-.85-3.257-2.113-4.643-3.8v13.833h-3.33v-35.09ZM446.973,65.347c-2.84,0-5.236.993-7.186,2.99-1.94,1.993-2.914,4.467-2.914,7.433,0,1.947.43,3.69,1.297,5.247.863,1.553,2.11,2.78,3.723,3.69,1.62.917,3.324,1.367,5.124,1.367s3.43-.46,4.973-1.377c1.563-.917,2.803-2.2,3.723-3.85.917-1.643,1.384-3.367,1.384-5.177s-.467-3.54-1.374-5.173c-.91-1.63-2.14-2.897-3.7-3.797-1.543-.903-3.23-1.353-5.056-1.353h.006Z" fill="#7d858a" stroke-width="0"/><path d="M257.943,62.757h3.327v4.44c1.153-1.637,2.333-2.837,3.547-3.59,1.666-.983,3.42-1.47,5.266-1.47,1.24,0,2.427.25,3.544.737,1.12.49,2.036,1.137,2.74,1.95.706.81,1.323,1.967,1.84,3.48,1.1-2.013,2.47-3.547,4.11-4.593,1.64-1.04,3.406-1.57,5.3-1.57,1.766,0,3.326.453,4.676,1.347,1.357.897,2.357,2.15,3.024,3.753.65,1.603.98,4.017.98,7.213v14.017h-3.33v-14.017c0-2.75-.2-4.637-.587-5.67-.397-1.03-1.067-1.867-2.007-2.487-.953-.633-2.083-.947-3.396-.947-1.6,0-3.057.473-4.38,1.42-1.327.94-2.297,2.203-2.904,3.773-.61,1.57-.91,4.2-.91,7.883v10.05h-3.336v-13.14c0-3.1-.19-5.2-.577-6.31-.387-1.11-1.06-1.997-2.013-2.663-.96-.673-2.1-1.007-3.417-1.007-1.53,0-2.95.46-4.283,1.38-1.327.923-2.31,2.163-2.944,3.717-.636,1.557-.956,3.943-.956,7.153v10.877h-3.327v-25.713l.013-.013Z" fill="#7d858a" stroke-width="0"/><path d="M328.923,62.757v25.713h-3.333v-4.417c-1.377,1.687-2.93,2.95-4.653,3.78-1.717.833-3.594,1.25-5.634,1.25-3.623,0-6.723-1.31-9.29-3.943-2.57-2.633-3.853-5.83-3.853-9.597s1.297-6.85,3.887-9.473,5.706-3.94,9.353-3.94c2.107,0,4.01.447,5.71,1.327,1.703.883,3.197,2.223,4.48,4.013v-4.72h3.333v.007ZM315.677,65.347c-1.827,0-3.517.45-5.067,1.353-1.543.897-2.773,2.163-3.687,3.797-.91,1.633-1.373,3.357-1.373,5.173s.46,3.53,1.387,5.177c.916,1.65,2.153,2.933,3.71,3.85,1.556.917,3.226,1.377,5.01,1.377s3.5-.453,5.103-1.367c1.613-.91,2.85-2.137,3.72-3.69.867-1.557,1.303-3.3,1.303-5.247,0-2.967-.976-5.44-2.923-7.433-1.943-1.997-4.337-2.99-7.18-2.99h-.003Z" fill="#7d858a" stroke-width="0"/><path d="M361.937,52.89v35.58h-3.33v-4.417c-1.377,1.687-2.92,2.95-4.644,3.78-1.706.833-3.586,1.25-5.62,1.25-3.616,0-6.71-1.31-9.27-3.943-2.563-2.633-3.836-5.83-3.836-9.597s1.29-6.85,3.873-9.473c2.583-2.623,5.7-3.94,9.333-3.94,2.094,0,3.99.453,5.694,1.353,1.696.893,3.176,2.24,4.47,4.033v-14.633h3.33v.007ZM348.72,65.347c-1.823,0-3.503.45-5.047,1.353-1.543.897-2.77,2.163-3.676,3.797-.914,1.633-1.374,3.357-1.374,5.173s.46,3.53,1.38,5.177c.92,1.65,2.154,2.933,3.704,3.85s3.213,1.377,4.986,1.377,3.494-.453,5.094-1.367c1.606-.91,2.84-2.137,3.706-3.69.864-1.557,1.294-3.3,1.294-5.247,0-2.967-.97-5.44-2.91-7.433-1.937-1.997-4.327-2.99-7.16-2.99h.003Z" fill="#7d858a" stroke-width="0"/><path d="M394.36,68.037l-2.613,1.627c-2.28-2.997-5.36-4.5-9.29-4.5-3.137,0-5.734,1.01-7.81,3.027-2.067,2.02-3.107,4.47-3.107,7.357,0,1.877.483,3.643,1.43,5.297.953,1.653,2.257,2.94,3.923,3.853,1.66.917,3.52,1.377,5.59,1.377,3.78,0,6.864-1.503,9.26-4.5l2.614,1.723c-1.227,1.837-2.88,3.263-4.957,4.283-2.077,1.003-4.443,1.513-7.09,1.513-4.07,0-7.45-1.283-10.133-3.863-2.684-2.573-4.027-5.703-4.027-9.397,0-2.48.633-4.787,1.88-6.917,1.26-2.127,2.98-3.787,5.173-4.983,2.197-1.19,4.654-1.79,7.364-1.79,1.703,0,3.353.26,4.936.773,1.584.507,2.934,1.173,4.037,1.99,1.113.817,2.047,1.863,2.817,3.133l.003-.003Z" fill="#7d858a" stroke-width="0"/><path d="M426.3,62.757v25.713h-3.32v-4.417c-1.383,1.687-2.933,2.95-4.653,3.78-1.724.833-3.604,1.25-5.637,1.25-3.63,0-6.727-1.31-9.297-3.943s-3.853-5.83-3.853-9.597,1.3-6.85,3.893-9.473c2.59-2.623,5.707-3.94,9.35-3.94,2.104,0,4.004.447,5.71,1.327,1.697.883,3.194,2.223,4.49,4.013v-4.72h3.32l-.003.007ZM413.06,65.347c-1.823,0-3.513.45-5.06,1.353-1.55.897-2.777,2.163-3.693,3.797-.914,1.633-1.374,3.357-1.374,5.173s.467,3.53,1.39,5.177c.91,1.65,2.154,2.933,3.717,3.85,1.547.917,3.22,1.377,5,1.377s3.5-.453,5.103-1.367c1.614-.91,2.86-2.137,3.72-3.69.867-1.557,1.297-3.3,1.297-5.247,0-2.967-.97-5.44-2.913-7.433-1.954-1.997-4.34-2.99-7.187-2.99Z" fill="#7d858a" stroke-width="0"/><path d="M433.727,62.757h3.33v4.72c1.303-1.79,2.803-3.13,4.5-4.013,1.7-.88,3.59-1.327,5.68-1.327,3.646,0,6.773,1.317,9.363,3.94,2.593,2.62,3.893,5.773,3.893,9.473s-1.293,6.963-3.86,9.597c-2.57,2.633-5.663,3.943-9.303,3.943-2.037,0-3.92-.423-5.63-1.277-1.72-.85-3.257-2.113-4.643-3.8v13.833h-3.33v-35.09ZM446.973,65.347c-2.84,0-5.236.993-7.186,2.99-1.94,1.993-2.914,4.467-2.914,7.433,0,1.947.43,3.69,1.297,5.247.863,1.553,2.11,2.78,3.723,3.69,1.62.917,3.324,1.367,5.124,1.367s3.43-.46,4.973-1.377c1.563-.917,2.803-2.2,3.723-3.85.917-1.643,1.384-3.367,1.384-5.177s-.467-3.54-1.374-5.173c-.91-1.63-2.14-2.897-3.7-3.797-1.543-.903-3.23-1.353-5.056-1.353h.006Z" fill="#7d858a" stroke-width="0"/><path d="M469.857,63.287c0-.97-.677-1.183-1.614-1.183h-2.383v3.967h.773v-1.56h1.227l1.15,1.56h.953l-1.216-1.613c.583-.033,1.106-.437,1.106-1.167l.004-.003ZM466.633,63.863v-1.117h1.494c.633,0,.953.093.953.557s-.32.563-.953.563h-1.494v-.003Z" fill="#7d858a" stroke-width="0"/><path d="M467.697,59.083c-2.757,0-5,2.243-5,5s2.243,5,5,5,5-2.243,5-5-2.244-5-5-5ZM467.697,68.177c-2.257,0-4.09-1.837-4.09-4.09s1.836-4.09,4.09-4.09,4.09,1.837,4.09,4.09-1.837,4.09-4.09,4.09Z" fill="#7d858a" stroke-width="0"/></g></svg>